<?xml version="1.0" encoding="utf-8"?>
<!-- Generator: Adobe Illustrator 17.0.2, SVG Export Plug-In . SVG Version: 6.00 Build 0)  -->
<!DOCTYPE svg PUBLIC "-//W3C//DTD SVG 1.1//EN" "http://www.w3.org/Graphics/SVG/1.1/DTD/svg11.dtd">
<svg version="1.1" id="Layer_1" xmlns="http://www.w3.org/2000/svg" xmlns:xlink="http://www.w3.org/1999/xlink" x="0px" y="0px"
	 width="192.672px" height="192.672px" viewBox="0 0 192.672 192.672" enable-background="new 0 0 192.672 192.672"
	 xml:space="preserve">
<rect x="0" y="0" fill-rule="evenodd" clip-rule="evenodd" fill="#FFFFFF" width="192.672" height="192.672"/>
<radialGradient id="SVGID_1_" cx="32.7598" cy="88.248" r="40.7001" gradientUnits="userSpaceOnUse">
	<stop  offset="0" style="stop-color:#ED1B2F"/>
	<stop  offset="0.1177" style="stop-color:#E71B2D"/>
	<stop  offset="0.2583" style="stop-color:#DC192B"/>
	<stop  offset="0.4107" style="stop-color:#CA1526"/>
	<stop  offset="0.5714" style="stop-color:#B00F1F"/>
	<stop  offset="0.7387" style="stop-color:#900311"/>
	<stop  offset="0.9089" style="stop-color:#6B0000"/>
	<stop  offset="1" style="stop-color:#540000"/>
</radialGradient>
<path fill-rule="evenodd" clip-rule="evenodd" fill="url(#SVGID_1_)" stroke="#000000" stroke-width="0.5" stroke-linecap="round" stroke-linejoin="round" d="
	M25.416,115.776c12.384,0,22.536-10.224,22.536-22.68c0-12.528-10.152-22.752-22.536-22.752c-12.456,0-22.608,10.224-22.608,22.752
	C2.808,105.552,12.96,115.776,25.416,115.776z"/>
<linearGradient id="SVGID_2_" gradientUnits="userSpaceOnUse" x1="115.0739" y1="72.248" x2="115.0739" y2="122.5761">
	<stop  offset="0" style="stop-color:#D2AC34"/>
	<stop  offset="0.44" style="stop-color:#D2AC39"/>
	<stop  offset="0.97" style="stop-color:#FFFFFF"/>
	<stop  offset="1" style="stop-color:#FFFFFF"/>
</linearGradient>
<path fill-rule="evenodd" clip-rule="evenodd" fill="url(#SVGID_2_)" d="M40.32,122.328c2.808-0.288,7.992-2.952,7.992-7.704v-29.52
	l1.368,0.504v-4.68c4.68-0.36,8.928,0.36,12.744,2.016C55.944,76.464,48.888,72.792,41.112,72c2.808,1.224,5.328,2.808,7.416,4.968
	c-1.656-0.792-3.456-1.152-5.256-1.152c1.656,0.864,2.952,1.8,3.672,2.952h-4.968c1.008,1.08,2.16,2.16,2.232,3.312v25.2
	l1.152-0.576c-0.72,3.24-1.944,5.904-3.672,8.064l3.096-1.512C44.28,116.712,42.768,119.736,40.32,122.328L40.32,122.328z
	 M109.224,111.312V89.64l-2.232-1.944h9.216l2.088,4.824l-3.24-2.232h-4.032l2.088,2.16v5.256h1.512l2.016-1.8v3.744h-3.672v7.488
	h2.088l3.096-3.528c-0.144,2.16-0.648,5.616-1.944,8.424c-1.224,2.808-3.312,4.968-5.832,5.112c-1.08,0.072-2.448-0.072-3.744-0.936
	c2.808,0.144,3.888-0.432,5.4-2.736h-6.408L109.224,111.312L109.224,111.312z M135.216,81.72h6.192
	c-3.456-1.8-7.56-3.312-11.736-3.96c2.88-1.008,6.408-1.656,9.792-1.584c2.16,0,4.32,0.216,6.12,1.008l-1.728,0.288l-0.864,0.504
	c5.472,2.52,10.296,6.984,11.016,13.176c-1.224-2.52-3.456-5.76-6.696-5.616c-3.816,0.144-8.352,6.552-8.28,11.448
	c0,2.16,0.72,4.32,1.368,6.264c-1.512-1.44-2.448-2.232-3.096-4.248c0,8.424,5.04,19.224,13.536,19.8
	c4.464,0.288,7.056-1.728,10.584-4.824c-3.024,4.248-5.616,6.192-11.376,6.336c-10.512,0.144-19.008-9.216-18.792-20.376
	c0.144-6.408,2.664-10.728,6.984-15.408L135.216,81.72L135.216,81.72z M157.752,88.992c1.008-1.368,1.944-2.736,3.384-3.024
	c0.504-0.144,1.152-0.144,1.872,0.144v30.312h8.064c-2.088-1.224-3.312-2.16-4.032-4.608V85.752h3.384
	c0.288,2.376-0.072,4.464-1.008,6.336c2.952-2.376,4.032-4.32,4.247-8.136h-11.736c-0.864-1.512-0.216-2.52,0.648-3.888
	C159.696,82.224,158.184,85.464,157.752,88.992L157.752,88.992z M174.672,86.688h11.448l-2.232,1.512
	c0.864-0.288,1.8-0.36,2.736-0.216c2.304,0.288,3.6,5.832,3.096,8.352c-0.864-2.016-1.224-6.552-6.696-6.624
	c-1.944,0-5.112,3.024-7.56,5.688c2.448,0.504,4.896,2.52,6.84,4.176c0.072-1.224-0.216-1.872-0.576-3.024
	c4.032,3.24,5.832,6.12,5.4,11.088c-0.648,6.624-4.32,12.672-11.664,12.744c-3.24,0.072-5.472-1.152-7.056-3.6
	c1.224,0.936,3.888,2.952,7.128,2.448c4.248-0.576,7.272-4.68,7.272-9.216c0-4.032-4.32-8.352-7.992-9.432
	c-0.576,1.8,0.216,3.168,1.224,4.68c-2.736-2.088-4.968-3.96-6.984-6.624l3.528-2.736l-1.8-2.304l7.056-5.544l-1.728-0.648
	L174.672,86.688L174.672,86.688z M147.024,91.224l2.88,1.296l-3.816,19.224l-2.448,2.016h6.12l2.088-12.744l3.672,2.232v10.512
	h5.904l-1.728-2.016V92.16l0.936-0.936H147.024L147.024,91.224z M151.128,98.28l5.904,2.52l0.144-5.76l-2.088-1.872l0.144,2.52
	l-3.168-2.88L151.128,98.28L151.128,98.28z M123.768,97.488V86.184c2.52,1.224,3.744,3.672,3.672,5.904
	C127.368,94.176,126.144,96.624,123.768,97.488L123.768,97.488z M119.88,110.808l-3.024,2.88h7.056V99.864
	c1.8,1.944,3.024,4.896,2.808,10.152c-0.144,5.328-4.032,8.424-9.072,9.216c-4.392,0.576-8.064-0.936-11.016-2.736
	c3.024,3.168,6.48,4.536,10.944,4.464c5.976-0.144,11.664-4.752,12.456-10.728c0.36-2.88,0.576-7.488-1.368-9.72
	c0.504,1.584,0.36,2.952-0.144,4.392c-0.792-1.872-1.8-4.032-3.024-5.688c3.6-1.08,5.4-3.24,5.4-7.056
	c-0.072-5.04-3.96-8.424-8.784-8.424h-4.176l1.944,1.656V110.808L119.88,110.808z M93.96,113.4l2.376-1.656
	c-0.216,2.232-1.368,3.168-2.808,3.384c-1.296,0.216-2.808-0.072-4.248-0.576c1.728,2.232,3.672,3.168,5.616,3.168
	c2.952,0.072,5.832-1.944,7.992-4.68c2.088-2.592,3.096-6.696,3.096-10.584c0.072-1.944-0.144-3.744-0.576-5.4
	c1.296,0.72,2.232,1.872,2.88,3.168c-1.8-9.288-6.264-13.32-15.624-13.464l1.296,1.584V113.4L93.96,113.4z M97.272,110.592v-19.44
	c2.376,1.08,5.76,7.056,5.904,11.376c0.072,3.384-1.008,6.84-2.52,10.224c-0.072-2.088-0.432-3.312-1.368-5.184L97.272,110.592
	L97.272,110.592z M85.32,86.184l-1.512,1.152l4.32,14.328V84.888L86.4,83.232h5.328v29.952h-4.824v-6.552l-3.456-10.584v17.784
	H76.32l1.728-1.728v-3.312l1.296-1.368v-8.352l1.944-1.944V86.184H85.32L85.32,86.184z M66.96,88.2l1.8,1.584v9.576
	c-1.368,1.584-2.52,2.88-2.376,5.04c0.216,3.528,2.52,6.12,5.76,6.336c0.648,0.072,1.368,0,2.16-0.144
	c-1.8-1.44-2.448-1.8-2.52-4.176c1.296,1.224,2.808,1.872,3.888,1.8c1.584-0.072,2.952-2.16,2.952-3.888V83.376h-6.48l2.52,1.8
	v19.512c-0.216,0.504-0.648,0.864-1.08,0.936c-0.936,0.072-2.088-0.936-2.16-2.016V88.2H66.96L66.96,88.2z M51.192,83.16h6.192
	v7.776L61.2,94.68v-7.2l-1.584-1.656h5.472v26.856h-5.4l1.512-1.512V98.136l-3.816-3.888v17.496h-5.328l2.016-1.656V93.24
	l-1.44,1.656V84.6L51.192,83.16z"/>
<linearGradient id="SVGID_3_" gradientUnits="userSpaceOnUse" x1="115.4699" y1="72.248" x2="115.4699" y2="97.2782">
	<stop  offset="0" style="stop-color:#00B9F2"/>
	<stop  offset="1" style="stop-color:#FFFFFF"/>
</linearGradient>
<path fill-rule="evenodd" clip-rule="evenodd" fill="url(#SVGID_3_)" d="M182.16,96.984h-0.36c0-0.144-0.072-0.288-0.072-0.432
	C181.872,96.696,182.016,96.84,182.16,96.984L182.16,96.984z M178.992,96.984c-1.08-0.72-2.304-1.296-3.528-1.584
	c2.448-2.664,5.616-5.688,7.56-5.688c5.472,0.072,5.832,4.608,6.696,6.624c0.504-2.52-0.792-8.064-3.096-8.352
	c-0.936-0.144-1.872-0.072-2.736,0.216l2.232-1.512h-11.448l1.44,0.72l1.728,0.648l-7.056,5.544l1.8,2.304l-1.44,1.08H178.992
	L178.992,96.984z M167.04,96.984h-4.032V86.112c-0.72-0.288-1.368-0.288-1.872-0.144c-1.44,0.288-2.376,1.656-3.384,3.024
	c0.432-3.528,1.944-6.768,4.824-8.928c-0.864,1.368-1.512,2.376-0.648,3.888h11.736c-0.216,3.816-1.296,5.76-4.247,8.136
	c0.936-1.872,1.296-3.96,1.008-6.336h-3.384V96.984L167.04,96.984z M159.696,96.984V92.16l0.936-0.936h-13.608l2.88,1.296
	l-0.936,4.464h2.376l0.72-4.176l3.168,2.88l-0.144-2.52l2.088,1.872l-0.072,1.944H159.696L159.696,96.984z M139.032,96.984h-7.56
	c0.792-4.824,3.168-8.496,6.768-12.456l-3.024-2.808h6.192c-3.456-1.8-7.56-3.312-11.736-3.96c2.88-1.008,6.408-1.656,9.792-1.584
	c2.16,0,4.32,0.216,6.12,1.008l-1.728,0.288l-0.864,0.504c5.472,2.52,10.296,6.984,11.016,13.176
	c-1.224-2.52-3.456-5.76-6.696-5.616C143.496,85.68,139.032,92.016,139.032,96.984L139.032,96.984z M129.312,96.984
	c1.08-1.152,1.584-2.736,1.584-4.824c-0.072-5.04-3.96-8.424-8.784-8.424h-4.176l1.944,1.656v11.592h3.888v-10.8
	c2.52,1.224,3.744,3.672,3.672,5.904c0,1.728-0.936,3.816-2.664,4.896H129.312L129.312,96.984z M116.64,96.984h-1.224l1.224-1.08
	V96.984L116.64,96.984z M113.112,96.984h-3.888V89.64l-2.232-1.944h9.216l2.088,4.824l-3.24-2.232h-4.032l2.088,2.16V96.984
	L113.112,96.984z M107.496,96.984c-2.16-6.984-6.624-10.08-14.832-10.224l1.296,1.584v8.64h3.312v-5.832
	c1.44,0.648,3.24,3.096,4.464,5.832H107.496L107.496,96.984z M91.728,96.984h-3.6V84.888L86.4,83.232h5.328V96.984L91.728,96.984z
	 M86.688,96.984l-2.88-9.648l1.512-1.152h-4.032v10.8h2.16v-0.936l0.288,0.936H86.688L86.688,96.984z M78.624,96.984h-3.961V85.176
	l-2.52-1.8h6.48V96.984L78.624,96.984z M71.424,96.984H68.76v-7.2l-1.8-1.584h4.464V96.984L71.424,96.984z M65.088,96.984H60.12
	l-2.736-2.736v2.736h-3.312V93.24l-1.44,1.656V84.6l-1.44-1.44h6.192v7.776L61.2,94.68v-7.2l-1.584-1.656h5.472V96.984
	L65.088,96.984z M48.312,96.984v-11.88l1.368,0.504v-4.68c4.68-0.36,8.928,0.36,12.744,2.016C55.944,76.464,48.888,72.792,41.112,72
	c2.808,1.224,5.328,2.808,7.416,4.968c-1.656-0.792-3.456-1.152-5.256-1.152c1.656,0.864,2.952,1.8,3.672,2.952h-4.968
	c1.008,1.08,2.16,2.16,2.232,3.312v14.904H48.312z"/>
<path fill-rule="evenodd" clip-rule="evenodd" fill="none" stroke="#000000" stroke-width="0.5" stroke-linecap="round" stroke-linejoin="round" d="
	M40.32,122.328c2.808-0.288,7.992-2.952,7.992-7.704v-29.52l1.368,0.504v-4.68c4.68-0.36,8.928,0.36,12.744,2.016
	C55.944,76.464,48.888,72.792,41.112,72c2.808,1.224,5.328,2.808,7.416,4.968c-1.656-0.792-3.456-1.152-5.256-1.152
	c1.656,0.864,2.952,1.8,3.672,2.952h-4.968c1.008,1.08,2.16,2.16,2.232,3.312v25.2l1.152-0.576c-0.72,3.24-1.944,5.904-3.672,8.064
	l3.096-1.512C44.28,116.712,42.768,119.736,40.32,122.328L40.32,122.328z M109.224,111.312V89.64l-2.232-1.944h9.216l2.088,4.824
	l-3.24-2.232h-4.032l2.088,2.16v5.256h1.512l2.016-1.8v3.744h-3.672v7.488h2.088l3.096-3.528c-0.144,2.16-0.648,5.616-1.944,8.424
	c-1.224,2.808-3.312,4.968-5.832,5.112c-1.08,0.072-2.448-0.072-3.744-0.936c2.808,0.144,3.888-0.432,5.4-2.736h-6.408
	L109.224,111.312L109.224,111.312z M135.216,81.72h6.192c-3.456-1.8-7.56-3.312-11.736-3.96c2.88-1.008,6.408-1.656,9.792-1.584
	c2.16,0,4.32,0.216,6.12,1.008l-1.728,0.288l-0.864,0.504c5.472,2.52,10.296,6.984,11.016,13.176
	c-1.224-2.52-3.456-5.76-6.696-5.616c-3.816,0.144-8.352,6.552-8.28,11.448c0,2.16,0.72,4.32,1.368,6.264
	c-1.512-1.44-2.448-2.232-3.096-4.248c0,8.424,5.04,19.224,13.536,19.8c4.464,0.288,7.056-1.728,10.584-4.824
	c-3.024,4.248-5.616,6.192-11.376,6.336c-10.512,0.144-19.008-9.216-18.792-20.376c0.144-6.408,2.664-10.728,6.984-15.408
	L135.216,81.72L135.216,81.72z M157.752,88.992c0.432-3.528,1.944-6.768,4.824-8.928c-0.864,1.368-1.512,2.376-0.648,3.888h11.736
	c-0.216,3.816-1.296,5.76-4.247,8.136c0.936-1.872,1.296-3.96,1.008-6.336h-3.384v26.064c0.72,2.448,1.944,3.384,4.032,4.608h-8.064
	V86.112c-0.72-0.288-1.368-0.288-1.872-0.144C159.696,86.256,158.76,87.624,157.752,88.992L157.752,88.992z M174.672,86.688h11.448
	l-2.232,1.512c0.864-0.288,1.8-0.36,2.736-0.216c2.304,0.288,3.6,5.832,3.096,8.352c-0.864-2.016-1.224-6.552-6.696-6.624
	c-1.944,0-5.112,3.024-7.56,5.688c2.448,0.504,4.896,2.52,6.84,4.176c0.072-1.224-0.216-1.872-0.576-3.024
	c4.032,3.24,5.832,6.12,5.4,11.088c-0.648,6.624-4.32,12.672-11.664,12.744c-3.24,0.072-5.472-1.152-7.056-3.6
	c1.224,0.936,3.888,2.952,7.128,2.448c4.248-0.576,7.272-4.68,7.272-9.216c0-4.032-4.32-8.352-7.992-9.432
	c-0.576,1.8,0.216,3.168,1.224,4.68c-2.736-2.088-4.968-3.96-6.984-6.624l3.528-2.736l-1.8-2.304l7.056-5.544l-1.728-0.648
	L174.672,86.688L174.672,86.688z M147.024,91.224h13.608l-0.936,0.936v19.584l1.728,2.016h-5.904v-10.512l-3.672-2.232
	l-2.088,12.744h-6.12l2.448-2.016l3.816-19.224L147.024,91.224L147.024,91.224z M151.128,98.28l0.936-5.472l3.168,2.88l-0.144-2.52
	l2.088,1.872l-0.144,5.76L151.128,98.28L151.128,98.28z M123.768,97.488V86.184c2.52,1.224,3.744,3.672,3.672,5.904
	C127.368,94.176,126.144,96.624,123.768,97.488L123.768,97.488z M119.88,110.808V85.392l-1.944-1.656h4.176
	c4.824,0,8.712,3.384,8.784,8.424c0,3.816-1.8,5.976-5.4,7.056c1.224,1.656,2.232,3.816,3.024,5.688
	c0.504-1.44,0.648-2.808,0.144-4.392c1.944,2.232,1.728,6.84,1.368,9.72c-0.792,5.976-6.48,10.584-12.456,10.728
	c-4.464,0.072-7.92-1.296-10.944-4.464c2.952,1.8,6.624,3.312,11.016,2.736c5.04-0.792,8.928-3.888,9.072-9.216
	c0.216-5.256-1.008-8.208-2.808-10.152v13.824h-7.056L119.88,110.808L119.88,110.808z M93.96,113.4V88.344l-1.296-1.584
	c9.36,0.144,13.824,4.176,15.624,13.464c-0.648-1.296-1.584-2.448-2.88-3.168c0.432,1.656,0.648,3.456,0.576,5.4
	c0,3.888-1.008,7.992-3.096,10.584c-2.16,2.736-5.04,4.752-7.992,4.68c-1.944,0-3.888-0.936-5.616-3.168
	c1.44,0.504,2.952,0.792,4.248,0.576c1.44-0.216,2.592-1.152,2.808-3.384L93.96,113.4L93.96,113.4z M97.272,110.592v-19.44
	c2.376,1.08,5.76,7.056,5.904,11.376c0.072,3.384-1.008,6.84-2.52,10.224c-0.072-2.088-0.432-3.312-1.368-5.184L97.272,110.592
	L97.272,110.592z M85.32,86.184l-1.512,1.152l4.32,14.328V84.888L86.4,83.232h5.328v29.952h-4.824v-6.552l-3.456-10.584v17.784
	H76.32l1.728-1.728v-3.312l1.296-1.368v-8.352l1.944-1.944V86.184H85.32L85.32,86.184z M66.96,88.2h4.464v15.408
	c0.072,1.08,1.224,2.088,2.16,2.016c0.432-0.072,0.864-0.432,1.08-0.936V85.176l-2.52-1.8h6.48v20.952
	c0,1.728-1.368,3.816-2.952,3.888c-1.08,0.072-2.592-0.576-3.888-1.8c0.072,2.376,0.72,2.736,2.52,4.176
	c-0.792,0.144-1.512,0.216-2.16,0.144c-3.24-0.216-5.544-2.808-5.76-6.336c-0.144-2.16,1.008-3.456,2.376-5.04v-9.576L66.96,88.2
	L66.96,88.2z M51.192,83.16h6.192v7.776L61.2,94.68v-7.2l-1.584-1.656h5.472v26.856h-5.4l1.512-1.512V98.136l-3.816-3.888v17.496
	h-5.328l2.016-1.656V93.24l-1.44,1.656V84.6L51.192,83.16z"/>
<linearGradient id="SVGID_4_" gradientUnits="userSpaceOnUse" x1="25.3806" y1="81.248" x2="25.3806" y2="110.0534">
	<stop  offset="0" style="stop-color:#D2AC34"/>
	<stop  offset="0.44" style="stop-color:#D2AC39"/>
	<stop  offset="0.97" style="stop-color:#FFFFFF"/>
	<stop  offset="1" style="stop-color:#FFFFFF"/>
</linearGradient>
<path fill-rule="evenodd" clip-rule="evenodd" fill="url(#SVGID_4_)" d="M41.256,105.552c2.52-3.024,3.816-7.56,3.888-11.952
	c0.144-3.312-0.432-6.624-2.016-9.144c-1.152,0.792-2.448,1.224-4.176,1.512c-2.088,0.36-3.888-0.72-5.4-2.232
	c0.072-0.216,0.504-0.504,0.576-0.576c0.864,0.792,2.52,2.376,4.608,2.088c1.008-0.216,4.176-1.584,4.752-2.88
	c-2.448,0.144-7.128-0.576-9.288-0.72c-1.584-0.144-5.04-0.36-6.696-0.288c-1.584,0.144-3.24,0.072-4.824,0.504
	c-2.16,0.576-3.384,1.44-5.328,2.52c-0.648,0.432-1.152,0.936-1.872,1.296c-0.216,0.144-0.432,0.216-0.648,0.288
	C13.68,86.04,7.56,88.344,5.76,90.072c-0.072,0.144-0.216,0.36-0.144,0.432c0.072,0.144,0.36,0.216,0.576,0.504
	c0.072,0.144,0.144,0.36,0.144,0.72c-0.072,1.152-0.216,2.52,0.288,3.528c0.288,0.576,0.936,0.72,1.224,1.224
	c0.288,0.576,0.216,1.224,0.504,1.8c0.288,0.72,0.936,1.368,1.44,1.944c0.504,0.576,1.944,1.944,2.448,2.088
	c-0.936-1.728-1.872-2.52-1.872-3.96c-0.144-4.32,5.256-6.264,9.072-6.336c3.024-0.144,5.112,1.08,5.256,4.176
	c0.072,1.728-0.936,3.168-1.656,4.824c-0.36,0.936-1.152,1.656-1.944,2.304c-1.224,0.936-2.736,2.088-4.392,2.16
	c-1.08,0-2.232-0.504-3.024-1.08c0,0.72,0.936,1.872,1.44,2.448c0.288,0.36,0.792,0.936,1.08,1.296
	c0.432,0.432,0.936,0.648,1.512,0.792c0.72,0.288,0.72,0.576,1.512,0.792c0.504,0.144,1.656,0.288,2.52,0.36
	c2.376,0.144,3.96-0.864,5.544-2.592c-0.864,0.432-2.736,0.72-3.096,0.36c-0.216-0.072-0.288-0.432-0.288-0.72
	c-0.144-1.44,0.864-1.728,1.872-2.52c0.72-0.504,1.656-0.936,2.52-1.224c1.224-0.432,3.744-0.792,4.896-1.368
	c2.664-1.368,4.248-4.824,3.744-7.56c-0.288-1.296-0.864-2.448-1.728-3.456L36,90.36c1.008,1.152,1.8,2.592,2.088,3.96
	c0.432,2.16-0.648,4.752-1.728,6.624C38.736,102.24,40.68,104.4,41.256,105.552L41.256,105.552z M17.424,85.896
	c0.288-0.432,1.08-0.792,1.8-1.224c1.656-0.936,3.816-1.728,4.824-2.088c0.432-0.216,1.152-0.36,1.44-0.072
	c0.072,0.576-0.72,0.864-1.152,1.224c-0.576,0.504-1.224,1.008-1.872,1.368c-0.792,0.504-1.368,0.936-2.232,1.296
	c-0.432,0.216-1.08,0.288-1.584,0.216C18.216,86.544,17.208,86.328,17.424,85.896z"/>
<linearGradient id="SVGID_5_" gradientUnits="userSpaceOnUse" x1="25.3806" y1="81.248" x2="25.3806" y2="94.6831">
	<stop  offset="0" style="stop-color:#00B9F2"/>
	<stop  offset="1" style="stop-color:#FFFFFF"/>
</linearGradient>
<path fill-rule="evenodd" clip-rule="evenodd" fill="url(#SVGID_5_)" d="M45.144,94.824c0-0.432,0-0.792,0-1.224
	c0.144-3.312-0.432-6.624-2.016-9.144c-1.152,0.792-2.448,1.224-4.176,1.512c-2.088,0.36-3.888-0.72-5.4-2.232
	c0.072-0.216,0.504-0.504,0.576-0.576c0.864,0.792,2.52,2.376,4.608,2.088c1.008-0.216,4.176-1.584,4.752-2.88
	c-2.448,0.144-7.128-0.576-9.288-0.72c-1.584-0.144-5.04-0.36-6.696-0.288c-1.584,0.144-3.24,0.072-4.824,0.504
	c-2.16,0.576-3.384,1.44-5.328,2.52c-0.648,0.432-1.152,0.936-1.872,1.296c-0.216,0.144-0.432,0.216-0.648,0.288
	C13.68,86.04,7.56,88.344,5.76,90.072c-0.072,0.144-0.216,0.36-0.144,0.432c0.072,0.144,0.36,0.216,0.576,0.504
	c0.072,0.144,0.144,0.36,0.144,0.72c-0.072,0.936-0.216,2.088,0.072,3.096h5.472c1.8-1.872,5.04-2.736,7.56-2.808
	c2.52-0.144,4.32,0.72,4.968,2.808h12.528c0-0.144,0-0.216,0-0.36c-0.288-1.296-0.864-2.448-1.728-3.456L36,90.36
	c1.008,1.152,1.8,2.592,2.088,3.96c0.072,0.144,0.072,0.288,0.072,0.504H45.144L45.144,94.824z M17.424,85.896
	c0.288-0.432,1.08-0.792,1.8-1.224c1.656-0.936,3.816-1.728,4.824-2.088c0.432-0.216,1.152-0.36,1.44-0.072
	c0.072,0.576-0.72,0.864-1.152,1.224c-0.576,0.504-1.224,1.008-1.872,1.368c-0.792,0.504-1.368,0.936-2.232,1.296
	c-0.432,0.216-1.08,0.288-1.584,0.216C18.216,86.544,17.208,86.328,17.424,85.896z"/>
<path fill-rule="evenodd" clip-rule="evenodd" fill="none" stroke="#000000" stroke-width="0.5" stroke-linecap="round" stroke-linejoin="round" d="
	M41.256,105.552c2.52-3.024,3.816-7.56,3.888-11.952c0.144-3.312-0.432-6.624-2.016-9.144c-1.152,0.792-2.448,1.224-4.176,1.512
	c-2.088,0.36-3.888-0.72-5.4-2.232c0.072-0.216,0.504-0.504,0.576-0.576c0.864,0.792,2.52,2.376,4.608,2.088
	c1.008-0.216,4.176-1.584,4.752-2.88c-2.448,0.144-7.128-0.576-9.288-0.72c-1.584-0.144-5.04-0.36-6.696-0.288
	c-1.584,0.144-3.24,0.072-4.824,0.504c-2.16,0.576-3.384,1.44-5.328,2.52c-0.648,0.432-1.152,0.936-1.872,1.296
	c-0.216,0.144-0.432,0.216-0.648,0.288C13.68,86.04,7.56,88.344,5.76,90.072c-0.072,0.144-0.216,0.36-0.144,0.432
	c0.072,0.144,0.36,0.216,0.576,0.504c0.072,0.144,0.144,0.36,0.144,0.72c-0.072,1.152-0.216,2.52,0.288,3.528
	c0.288,0.576,0.936,0.72,1.224,1.224c0.288,0.576,0.216,1.224,0.504,1.8c0.288,0.72,0.936,1.368,1.44,1.944
	c0.504,0.576,1.944,1.944,2.448,2.088c-0.936-1.728-1.872-2.52-1.872-3.96c-0.144-4.32,5.256-6.264,9.072-6.336
	c3.024-0.144,5.112,1.08,5.256,4.176c0.072,1.728-0.936,3.168-1.656,4.824c-0.36,0.936-1.152,1.656-1.944,2.304
	c-1.224,0.936-2.736,2.088-4.392,2.16c-1.08,0-2.232-0.504-3.024-1.08c0,0.72,0.936,1.872,1.44,2.448
	c0.288,0.36,0.792,0.936,1.08,1.296c0.432,0.432,0.936,0.648,1.512,0.792c0.72,0.288,0.72,0.576,1.512,0.792
	c0.504,0.144,1.656,0.288,2.52,0.36c2.376,0.144,3.96-0.864,5.544-2.592c-0.864,0.432-2.736,0.72-3.096,0.36
	c-0.216-0.072-0.288-0.432-0.288-0.72c-0.144-1.44,0.864-1.728,1.872-2.52c0.72-0.504,1.656-0.936,2.52-1.224
	c1.224-0.432,3.744-0.792,4.896-1.368c2.664-1.368,4.248-4.824,3.744-7.56c-0.288-1.296-0.864-2.448-1.728-3.456L36,90.36
	c1.008,1.152,1.8,2.592,2.088,3.96c0.432,2.16-0.648,4.752-1.728,6.624C38.736,102.24,40.68,104.4,41.256,105.552L41.256,105.552z
	 M17.424,85.896c0.288-0.432,1.08-0.792,1.8-1.224c1.656-0.936,3.816-1.728,4.824-2.088c0.432-0.216,1.152-0.36,1.44-0.072
	c0.072,0.576-0.72,0.864-1.152,1.224c-0.576,0.504-1.224,1.008-1.872,1.368c-0.792,0.504-1.368,0.936-2.232,1.296
	c-0.432,0.216-1.08,0.288-1.584,0.216C18.216,86.544,17.208,86.328,17.424,85.896z"/>
</svg>
